<svg xmlns="http://www.w3.org/2000/svg" data-name="Layer 1" viewBox="0 0 24 24" width="512" height="512"><path d="M18.5 0h-11a4.508 4.508 0 0 0-4.243 3H1.5a.5.5 0 0 0 0 1h1.528A4.583 4.583 0 0 0 3 4.5V7H1.5a.5.5 0 0 0 0 1H3v3.5H1.5a.5.5 0 0 0 0 1H3V16H1.5a.5.5 0 0 0 0 1H3v2.5c0 .169.01.336.028.5H1.5a.5.5 0 0 0 0 1h1.757A4.508 4.508 0 0 0 7.5 24h11c2.481 0 4.5-2.019 4.5-4.5v-15C23 2.019 20.981 0 18.5 0ZM22 19.5c0 1.93-1.57 3.5-3.5 3.5h-11C5.57 23 4 21.43 4 19.5v-15C4 2.57 5.57 1 7.5 1h11C20.43 1 22 2.57 22 4.5v15ZM13 12c1.654 0 3-1.346 3-3s-1.346-3-3-3-3 1.346-3 3 1.346 3 3 3Zm0-5c1.103 0 2 .897 2 2s-.897 2-2 2-2-.897-2-2 .897-2 2-2Zm5 11v.5a.5.5 0 0 1-1 0V18c0-2.206-1.794-4-4-4s-4 1.794-4 4v.5a.5.5 0 0 1-1 0V18c0-2.757 2.243-5 5-5s5 2.243 5 5Z" fill="#2196f3"/></svg>